<?xml version="1.0" encoding="UTF-8" standalone="no"?>
<!-- Created with Inkscape (http://www.inkscape.org/) -->

<svg
   width="624.01959mm"
   height="86.06472mm"
   viewBox="0 0 624.01959 86.06472"
   version="1.1"
   id="svg44141"
   inkscape:version="1.1.2 (0a00cf5339, 2022-02-04)"
   sodipodi:docname="dask-awkward-logo.svg"
   xmlns:inkscape="http://www.inkscape.org/namespaces/inkscape"
   xmlns:sodipodi="http://sodipodi.sourceforge.net/DTD/sodipodi-0.dtd"
   xmlns="http://www.w3.org/2000/svg"
   xmlns:svg="http://www.w3.org/2000/svg">
  <sodipodi:namedview
     id="namedview44143"
     pagecolor="#ffffff"
     bordercolor="#666666"
     borderopacity="1.0"
     inkscape:pageshadow="2"
     inkscape:pageopacity="0.0"
     inkscape:pagecheckerboard="0"
     inkscape:document-units="mm"
     showgrid="false"
     fit-margin-top="1"
     fit-margin-left="1"
     fit-margin-right="1"
     fit-margin-bottom="1"
     inkscape:zoom="0.66368547"
     inkscape:cx="1152.6544"
     inkscape:cy="180.80854"
     inkscape:window-width="2554"
     inkscape:window-height="1365"
     inkscape:window-x="1920"
     inkscape:window-y="32"
     inkscape:window-maximized="1"
     inkscape:current-layer="layer1" />
  <defs
     id="defs44138" />
  <g
     inkscape:label="Layer 1"
     inkscape:groupmode="layer"
     id="layer1"
     transform="translate(199.98698,-100.48442)">
    <g
       id="g41387"
       transform="translate(-104.38709,-986.0438)">
      <g
         aria-label="dask-awkward"
         transform="scale(1.0430443,0.95873205)"
         id="text25304"
         style="font-weight:bold;font-size:91.8604px;line-height:1.25;font-family:'DejaVu Sans';-inkscape-font-specification:'DejaVu Sans Bold';opacity:1;fill:#04255c;stroke-width:5.74127">
        <path
           d="m 26.661363,1204.4923 q -0.08971,-0.3588 -0.179415,-1.2559 -0.08971,-0.9419 -0.179415,-2.1081 -0.08971,-1.1662 -0.134561,-2.3773 -0.04485,-1.211 -0.04485,-2.1529 h -0.134561 q -1.794148,4.7096 -5.023615,6.7729 -3.229467,2.0184 -7.714838,2.0184 -3.7677119,0 -6.5037882,-1.8839 -2.7360763,-1.8838 -4.5302247,-5.2479 -1.79414838,-3.364 -2.64636886,-7.9391 -0.85222044,-4.6199 -0.85222044,-10.0472 0,-5.517 0.89707414,-10.1369 0.8970742,-4.62 2.78092996,-7.9391 1.8838558,-3.3641 4.7544933,-5.2479 2.9154908,-1.8839 6.8626178,-1.8839 1.928709,0 3.722858,0.4934 1.839002,0.4934 3.364028,1.525 1.56988,1.0317 2.825784,2.6464 1.255903,1.6147 2.108124,3.9023 h 0.08971 q 0,-0.4486 -0.04485,-1.3008 0,-0.8971 0,-2.0184 0,-1.1213 -0.04485,-2.3324 0,-1.211 0,-2.3324 v -17.7172 h 10.361207 v 55.9774 q 0,3.5435 0.08971,6.3244 0.134561,2.7361 0.179415,4.2611 z m -0.448537,-24.535 q 0,-4.7993 -0.762513,-7.9391 -0.71766,-3.1846 -1.92871,-5.0236 -1.21105,-1.8838 -2.736076,-2.6015 -1.525026,-0.7625 -3.094906,-0.7625 -1.973563,0 -3.498589,0.9419 -1.525027,0.9419 -2.601516,2.9604 -1.031635,2.0184 -1.569879,5.1581 -0.5382449,3.1398 -0.5382449,7.5803 0,16.5062 8.1185219,16.5062 1.525026,0 3.094905,-0.8074 1.56988,-0.8074 2.78093,-2.7361 1.211051,-1.9287 1.973564,-5.1581 0.762513,-3.2744 0.762513,-8.1186 z"
           style="font-family:'Liberation Sans Narrow';-inkscape-font-specification:'Liberation Sans Narrow Bold'"
           id="path41881" />
        <path
           d="m 56.085395,1205.3894 q -2.870637,0 -5.158176,-0.9419 -2.242686,-0.9868 -3.812566,-2.8258 -1.569879,-1.8839 -2.4221,-4.62 -0.85222,-2.736 -0.85222,-6.2346 0,-4.306 1.21105,-7.2215 1.255904,-2.9603 3.364028,-4.7545 2.152978,-1.839 5.023616,-2.6463 2.870637,-0.8523 6.100104,-0.8971 l 8.567059,-0.1794 v -2.467 q 0,-2.6463 -0.403684,-4.3956 -0.358829,-1.7942 -1.121343,-2.9155 -0.717659,-1.1214 -1.794148,-1.5699 -1.076489,-0.4934 -2.466954,-0.4934 -1.300758,0 -2.332393,0.314 -0.986781,0.3139 -1.749295,1.1213 -0.717659,0.7625 -1.166196,2.1081 -0.448537,1.3008 -0.627952,3.3192 l -10.809744,-0.6279 q 0.448537,-3.1847 1.614734,-5.7862 1.21105,-2.6463 3.27432,-4.575 2.063271,-1.9288 5.113323,-2.9604 3.050053,-1.0765 7.13174,-1.0765 3.722858,0 6.593495,1.1214 2.915492,1.1213 4.933908,3.364 2.018417,2.1978 3.094906,5.4273 1.076489,3.2295 1.076489,7.4906 v 17.6723 q 0,1.7045 0.134562,3.0501 0.134561,1.3456 0.448537,2.2875 0.358829,0.8971 0.986781,1.3905 0.672806,0.4485 1.704441,0.4485 1.166197,0 2.287539,-0.2691 v 6.8178 q 0,0 -1.659587,0.4933 -0.762513,0.2243 -1.480172,0.3589 -0.71766,0.1345 -1.56988,0.2242 -0.807367,0.09 -1.92871,0.09 -3.902272,0 -5.786128,-2.3324 -1.839002,-2.3324 -2.197832,-6.8627 h -0.224268 q -2.063271,4.5303 -5.292738,7.0421 -3.229467,2.5118 -7.804546,2.5118 z m 12.020795,-23.3688 -5.292738,0.09 q -1.659587,0.09 -3.13976,0.3588 -1.480172,0.2243 -2.601515,1.0317 -1.121343,0.7625 -1.794148,2.2427 -0.672806,1.4801 -0.672806,4.0368 0,3.4537 1.300758,5.1582 1.345611,1.6596 3.498589,1.6596 1.973563,0 3.588297,-1.0317 1.659587,-1.0316 2.78093,-2.6912 1.121342,-1.7044 1.704441,-3.9023 0.627952,-2.1978 0.627952,-4.4853 z"
           style="font-family:'Liberation Sans Narrow';-inkscape-font-specification:'Liberation Sans Narrow Bold'"
           id="path41883" />
        <path
           d="m 122.33432,1190.3185 q 0,3.4986 -1.21105,6.2796 -1.16619,2.7809 -3.45373,4.7544 -2.28754,1.9288 -5.60672,3.0052 -3.27432,1.0317 -7.53542,1.0317 -3.76771,0 -6.817763,-0.6728 -3.050052,-0.6728 -5.382445,-2.1979 -2.287539,-1.5698 -3.857419,-4.0368 -1.525026,-2.4669 -2.287539,-6.1001 l 9.105303,-1.6596 q 0.448537,2.0184 1.21105,3.2743 0.762513,1.2559 1.883856,1.9288 1.166196,0.6728 2.691227,0.897 1.52502,0.2243 3.45373,0.2243 1.7493,0 3.27432,-0.2243 1.56988,-0.2691 2.69122,-0.8522 1.12135,-0.6279 1.7493,-1.7044 0.62795,-1.1214 0.62795,-2.781 0,-1.8838 -0.94193,-2.9603 -0.89707,-1.1214 -2.46695,-1.7942 -1.52503,-0.7176 -3.67801,-1.211 -2.10812,-0.5383 -4.48537,-1.2111 -2.511804,-0.6728 -4.933904,-1.6147 -2.422101,-0.9419 -4.35081,-2.5567 -1.883856,-1.6147 -3.094906,-4.0816 -1.166196,-2.5119 -1.166196,-6.3244 0,-3.4538 1.121342,-6.145 1.121343,-2.736 3.229467,-4.6199 2.152978,-1.9287 5.292738,-2.9155 3.139759,-1.0316 7.221449,-1.0316 3.22947,0 6.0104,0.7625 2.82578,0.7176 5.02361,2.3324 2.19783,1.5699 3.67801,4.0368 1.52502,2.467 2.10812,5.9656 l -9.19501,1.1661 q -0.26912,-1.7492 -0.94193,-2.8706 -0.62795,-1.1662 -1.61473,-1.839 -0.94193,-0.6728 -2.24269,-0.8971 -1.30076,-0.2691 -2.82578,-0.2691 -3.67801,0 -5.517008,1.1662 -1.839002,1.1214 -1.839002,3.8126 0,1.6596 0.717659,2.6463 0.762513,0.9868 2.152981,1.6596 1.39046,0.628 3.27432,1.1214 1.88385,0.4485 4.12654,1.1213 2.78093,0.7177 5.4273,1.7045 2.69122,0.9419 4.75449,2.6463 2.10813,1.6596 3.36403,4.306 1.2559,2.6463 1.2559,6.728 z"
           style="font-family:'Liberation Sans Narrow';-inkscape-font-specification:'Liberation Sans Narrow Bold'"
           id="path41885" />
        <path
           d="m 156.10917,1204.4923 -10.63033,-21.9783 -4.44051,3.7677 v 18.2106 h -10.36121 v -66.5629 h 10.36121 v 38.1257 l 14.17377,-20.0945 h 11.12372 l -13.99436,18.9283 15.07085,29.6034 z"
           style="font-family:'Liberation Sans Narrow';-inkscape-font-specification:'Liberation Sans Narrow Bold'"
           id="path41887" />
        <path
           d="m 170.28294,1186.1471 v -10.9443 h 19.10768 v 10.9443 z"
           style="font-family:'Liberation Sans Narrow';-inkscape-font-specification:'Liberation Sans Narrow Bold'"
           id="path41889" />
        <path
           d="m 206.83871,1205.3894 q -2.87063,0 -5.15817,-0.9419 -2.24269,-0.9868 -3.81257,-2.8258 -1.56988,-1.8839 -2.4221,-4.62 -0.85222,-2.736 -0.85222,-6.2346 0,-4.306 1.21105,-7.2215 1.25591,-2.9603 3.36403,-4.7545 2.15298,-1.839 5.02362,-2.6463 2.87063,-0.8523 6.1001,-0.8971 l 8.56706,-0.1794 v -2.467 q 0,-2.6463 -0.40369,-4.3956 -0.35882,-1.7942 -1.12134,-2.9155 -0.71766,-1.1214 -1.79415,-1.5699 -1.07649,-0.4934 -2.46695,-0.4934 -1.30076,0 -2.33239,0.314 -0.98678,0.3139 -1.7493,1.1213 -0.71766,0.7625 -1.16619,2.1081 -0.44854,1.3008 -0.62796,3.3192 l -10.80974,-0.6279 q 0.44854,-3.1847 1.61473,-5.7862 1.21105,-2.6463 3.27432,-4.575 2.06327,-1.9288 5.11333,-2.9604 3.05005,-1.0765 7.13174,-1.0765 3.72285,0 6.59349,1.1214 2.91549,1.1213 4.93391,3.364 2.01842,2.1978 3.09491,5.4273 1.07649,3.2295 1.07649,7.4906 v 17.6723 q 0,1.7045 0.13456,3.0501 0.13456,1.3456 0.44853,2.2875 0.35883,0.8971 0.98679,1.3905 0.6728,0.4485 1.70444,0.4485 1.16619,0 2.28754,-0.2691 v 6.8178 q 0,0 -1.65959,0.4933 -0.76252,0.2243 -1.48017,0.3589 -0.71766,0.1345 -1.56988,0.2242 -0.80737,0.09 -1.92871,0.09 -3.90228,0 -5.78613,-2.3324 -1.839,-2.3324 -2.19783,-6.8627 H 219.936 q -2.06327,4.5303 -5.29274,7.0421 -3.22947,2.5118 -7.80455,2.5118 z m 12.0208,-23.3688 -5.29274,0.09 q -1.65959,0.09 -3.13976,0.3588 -1.48017,0.2243 -2.60151,1.0317 -1.12135,0.7625 -1.79415,2.2427 -0.67281,1.4801 -0.67281,4.0368 0,3.4537 1.30076,5.1582 1.34561,1.6596 3.49859,1.6596 1.97356,0 3.5883,-1.0317 1.65958,-1.0316 2.78093,-2.6912 1.12134,-1.7044 1.70444,-3.9023 0.62795,-2.1978 0.62795,-4.4853 z"
           style="font-family:'Liberation Sans Narrow';-inkscape-font-specification:'Liberation Sans Narrow Bold'"
           id="path41891" />
        <path
           d="m 282.59662,1204.4923 h -10.89945 l -6.36923,-29.6034 q -0.31397,-1.3905 -0.5831,-3.0949 -0.26912,-1.7493 -0.53824,-3.2744 l -0.5831,-3.5883 q -0.31397,1.7942 -0.6728,3.5883 -0.31398,1.5251 -0.62796,3.2744 -0.31397,1.7492 -0.62795,3.1846 l -6.41408,29.5137 h -10.89945 l -10.31635,-48.5317 h 9.73325 l 5.02362,28.527 q 0.22427,1.211 0.44854,2.6912 l 0.49339,2.8258 q 0.26912,1.525 0.58309,3.05 0.26913,-1.7044 0.49339,-3.3192 0.22427,-1.3904 0.4934,-2.8257 l 0.44853,-2.4221 6.23467,-28.527 h 11.07886 l 6.10011,28.527 q 0.26912,1.1662 0.53824,2.6463 l 0.49339,2.781 q 0.26913,1.525 0.4934,3.1397 0.31397,-1.6147 0.53824,-3.1397 0,0 0.49339,-2.781 l 0.49339,-2.6463 5.24789,-28.527 h 9.55384 z"
           style="font-family:'Liberation Sans Narrow';-inkscape-font-specification:'Liberation Sans Narrow Bold'"
           id="path41893" />
        <path
           d="m 325.50549,1199.2585 -13.42637,-17.4177 -4.19113,4.0919 0.96454,19.0375 -10.14679,-0.093 -4.21915,-66.4045 10.33654,-0.7773 2.41663,38.0349 12.8475,-24.2472 10.17686,2.2275 -11.82204,20.0083 17.24117,21.4991 z"
           style="font-family:'Liberation Sans Narrow';-inkscape-font-specification:'Liberation Sans Narrow Bold'"
           id="path41895"
           inkscape:transform-center-x="-11.58626"
           inkscape:transform-center-y="-31.452667"
           sodipodi:nodetypes="ccccccccccccc" />
        <path
           d="m 382.48306,1205.1509 -10.48314,-0.034 -3.63145,-31.4859 c -0.11264,-0.9467 -0.19965,-1.9955 -0.26104,-3.1464 -0.0583,-1.1807 -0.12433,-2.2872 -0.19799,-3.3194 l -0.21027,-3.6367 c -0.33107,1.1631 -0.67698,2.3243 -1.03775,3.4838 -0.3126,0.9849 -0.63289,2.044 -0.96087,3.1773 -0.32797,1.1333 -0.64518,2.1627 -0.95163,3.0882 l -8.97008,27.3633 -11.27101,-0.1433 -8.95289,-48.6291 9.78563,-0.6766 5.63794,29.9674 c 0.0655,0.8205 0.12182,1.7301 0.16885,2.7289 l 0.19957,2.8681 c 0.0737,1.0321 0.16225,2.0661 0.26566,3.1018 0.29518,-1.1073 0.57243,-2.1867 0.83176,-3.2382 0.24394,-0.9029 0.50427,-1.8189 0.781,-2.7479 l 0.69491,-2.3522 9.13031,-27.5886 11.00926,1.3491 3.12695,29.0905 c 0.0983,0.7945 0.18583,1.6929 0.2626,2.6952 l 0.20419,2.8236 c 0.0737,1.0321 0.12945,2.0922 0.16728,3.1801 0.31875,-1.0442 0.6047,-2.0623 0.85787,-3.0544 l 0.7764,-2.7035 0.76254,-2.5696 6.64078,-28.4051 9.49381,1.1634 z"
           style="font-family:'Liberation Sans Narrow';-inkscape-font-specification:'Liberation Sans Narrow Bold'"
           id="path41897"
           inkscape:transform-center-x="8.9679155"
           inkscape:transform-center-y="-24.489135"
           sodipodi:nodetypes="cccccccscccccccccccccccccccccccc" />
        <path
           d="m 407.87305,1205.3894 q -2.87064,0 -5.15818,-0.9419 -2.24269,-0.9868 -3.81257,-2.8258 -1.56988,-1.8839 -2.4221,-4.62 -0.85222,-2.736 -0.85222,-6.2346 0,-4.306 1.21105,-7.2215 1.25591,-2.9603 3.36403,-4.7545 2.15298,-1.839 5.02362,-2.6463 2.87063,-0.8523 6.1001,-0.8971 l 8.56706,-0.1794 v -2.467 q 0,-2.6463 -0.40368,-4.3956 -0.35883,-1.7942 -1.12135,-2.9155 -0.71765,-1.1214 -1.79414,-1.5699 -1.07649,-0.4934 -2.46696,-0.4934 -1.30076,0 -2.33239,0.314 -0.98678,0.3139 -1.7493,1.1213 -0.71765,0.7625 -1.16619,2.1081 -0.44854,1.3008 -0.62795,3.3192 l -10.80975,-0.6279 q 0.44854,-3.1847 1.61474,-5.7862 1.21105,-2.6463 3.27432,-4.575 2.06327,-1.9288 5.11332,-2.9604 3.05005,-1.0765 7.13174,-1.0765 3.72286,0 6.59349,1.1214 2.9155,1.1213 4.93391,3.364 2.01842,2.1978 3.09491,5.4273 1.07649,3.2295 1.07649,7.4906 v 17.6723 q 0,1.7045 0.13456,3.0501 0.13456,1.3456 0.44854,2.2875 0.35883,0.8971 0.98678,1.3905 0.6728,0.4485 1.70444,0.4485 1.16619,0 2.28754,-0.2691 v 6.8178 q 0,0 -1.65959,0.4933 -0.76251,0.2243 -1.48017,0.3589 -0.71766,0.1345 -1.56988,0.2242 -0.80737,0.09 -1.92871,0.09 -3.90227,0 -5.78613,-2.3324 -1.839,-2.3324 -2.19783,-6.8627 h -0.22427 q -2.06327,4.5303 -5.29274,7.0421 -3.22947,2.5118 -7.80454,2.5118 z m 12.02079,-23.3688 -5.29274,0.09 q -1.65958,0.09 -3.13976,0.3588 -1.48017,0.2243 -2.60151,1.0317 -1.12134,0.7625 -1.79415,2.2427 -0.67281,1.4801 -0.67281,4.0368 0,3.4537 1.30076,5.1582 1.34561,1.6596 3.49859,1.6596 1.97356,0 3.5883,-1.0317 1.65958,-1.0316 2.78093,-2.6912 1.12134,-1.7044 1.70444,-3.9023 0.62795,-2.1978 0.62795,-4.4853 z"
           style="font-family:'Liberation Sans Narrow';-inkscape-font-specification:'Liberation Sans Narrow Bold'"
           id="path41899" />
        <path
           d="m 440.57138,1204.4923 v -37.1389 q 0,-1.5698 -0.0449,-3.3191 0,-1.7493 -0.0448,-3.3192 -0.0448,-1.6147 -0.0897,-2.8706 -0.0448,-1.3008 -0.0897,-1.8839 h 9.82297 q 0.0897,0.5382 0.13456,1.8839 0.0897,1.3007 0.13456,2.8706 l 0.17941,3.1397 q 0.0449,1.5251 0.0449,2.467 h 0.13456 q 0.76251,-2.6464 1.52503,-4.7096 0.80736,-2.1082 1.839,-3.5435 1.03163,-1.4802 2.51181,-2.2427 1.48017,-0.8073 3.63315,-0.8073 0.89707,0 1.79414,0.2242 0.94193,0.1795 1.43532,0.4486 v 10.5406 q -0.98678,-0.2691 -2.01841,-0.4485 -1.03164,-0.2243 -2.4221,-0.2243 -3.85742,0 -6.0104,3.8126 -2.15298,3.8125 -2.15298,11.3031 v 23.8173 z"
           style="font-family:'Liberation Sans Narrow';-inkscape-font-specification:'Liberation Sans Narrow Bold'"
           id="path41901" />
        <path
           d="m 495.65175,1204.4923 q -0.0897,-0.3588 -0.17942,-1.2559 -0.0897,-0.9419 -0.17941,-2.1081 -0.0897,-1.1662 -0.13456,-2.3773 -0.0448,-1.211 -0.0448,-2.1529 h -0.13457 q -1.79414,4.7096 -5.02361,6.7729 -3.22947,2.0184 -7.71484,2.0184 -3.76771,0 -6.50379,-1.8839 -2.73607,-1.8838 -4.53022,-5.2479 -1.79415,-3.364 -2.64637,-7.9391 -0.85222,-4.6199 -0.85222,-10.0472 0,-5.517 0.89707,-10.1369 0.89708,-4.62 2.78093,-7.9391 1.88386,-3.3641 4.7545,-5.2479 2.91549,-1.8839 6.86261,-1.8839 1.92871,0 3.72286,0.4934 1.839,0.4934 3.36403,1.525 1.56988,1.0317 2.82578,2.6464 1.25591,1.6147 2.10813,3.9023 h 0.0897 q 0,-0.4486 -0.0449,-1.3008 0,-0.8971 0,-2.0184 0,-1.1213 -0.0448,-2.3324 0,-1.211 0,-2.3324 v -17.7172 h 10.3612 v 55.9774 q 0,3.5435 0.0897,6.3244 0.13456,2.7361 0.17942,4.2611 z m -0.44854,-24.535 q 0,-4.7993 -0.76251,-7.9391 -0.71766,-3.1846 -1.92871,-5.0236 -1.21105,-1.8838 -2.73608,-2.6015 -1.52502,-0.7625 -3.0949,-0.7625 -1.97357,0 -3.49859,0.9419 -1.52503,0.9419 -2.60152,2.9604 -1.03163,2.0184 -1.56988,5.1581 -0.53824,3.1398 -0.53824,7.5803 0,16.5062 8.11852,16.5062 1.52503,0 3.09491,-0.8074 1.56988,-0.8074 2.78093,-2.7361 1.21105,-1.9287 1.97356,-5.1581 0.76251,-3.2744 0.76251,-8.1186 z"
           style="font-family:'Liberation Sans Narrow';-inkscape-font-specification:'Liberation Sans Narrow Bold'"
           id="path41903" />
      </g>
      <path
         d="m -79.054666,1112.318 22.185312,-12.8006 a 0.71172916,0.71172916 0 0 0 0.354542,-0.6138 v -7.6729 a 3.6750625,3.6750625 0 0 0 -1.370542,-2.9607 3.4951458,3.4951458 0 0 0 -3.915833,-0.2646 l -31.032979,17.9202 a 3.52425,3.52425 0 0 0 -1.764771,3.0533 v 40.4389 a 3.6803541,3.6803541 0 0 0 1.367896,2.9475 3.5004375,3.5004375 0 0 0 3.921125,0.2646 l 6.57225,-3.7915 a 0.70908332,0.70908332 0 0 0 0.354542,-0.6138 v -30.1361 a 6.6569166,6.6569166 0 0 1 3.328458,-5.7705 z"
         fill="#ffc11e"
         id="path332711"
         style="stroke-width:0.264583" />
      <path
         d="m -25.873417,1106.5262 a 3.4951458,3.4951458 0 0 0 -3.526896,0 l -31.032978,17.8938 a 3.5348333,3.5348333 0 0 0 -1.764771,3.0533 l -0.01323,40.5924 a 3.5295416,3.5295416 0 0 0 5.291666,3.0559 l 31.030333,-17.907 a 3.5295416,3.5295416 0 0 0 1.764771,-3.0533 l 0.01323,-40.5924 a 3.4898541,3.4898541 0 0 0 -1.762125,-3.0427 z"
         fill="#ef1161"
         id="path332713"
         style="stroke-width:0.264583" />
      <path
         d="m -61.991687,1121.7027 20.47875,-11.8136 a 0.71437499,0.71437499 0 0 0 0.351895,-0.6138 v -8.9403 a 3.667125,3.667125 0 0 0 -1.373187,-2.9501 3.5057291,3.5057291 0 0 0 -3.915833,-0.2646 l -8.498417,4.908 -22.539854,13.0043 a 3.5268958,3.5268958 0 0 0 -1.762125,3.0533 v 30.5461 9.8928 a 3.6750625,3.6750625 0 0 0 1.370542,2.9475 3.5057291,3.5057291 0 0 0 3.918479,0.2645 l 8.265583,-4.7783 a 0.70908332,0.70908332 0 0 0 0.354542,-0.6139 v -28.8713 a 6.6595624,6.6595624 0 0 1 3.349625,-5.7706 z"
         fill="#fc6e6b"
         id="path332715"
         style="stroke-width:0.264583" />
    </g>
  </g>
</svg>
